<svg xmlns="http://www.w3.org/2000/svg" version="1.1" xmlns:xlink="http://www.w3.org/1999/xlink" width="60" height="60" x="0" y="0" viewBox="0 0 512 512" style="enable-background:new 0 0 512 512" xml:space="preserve" class=""><g><path fill="#3c2f3f" d="M93.092 193.797a7.758 7.758 0 0 1-7.758-7.758v-71.224a7.758 7.758 0 0 1 15.516 0v71.224a7.759 7.759 0 0 1-7.758 7.758z" opacity="1" data-original="#3c2f3f"></path><path fill="#594c5e" d="M417.861 74.056 306.363 12.95c-31.493-17.259-69.354-17.273-100.873 0l-26.371 14.453c-36.161 24.221-21.091 59.628 9.768 69.681l173.953 55.879c.104-.056 56.205-30.607 58.897-32.696 15.306-11.921 14.014-36.404-3.876-46.211z" opacity="1" data-original="#594c5e"></path><path fill="#4c3e4f" d="M179.119 27.402 93.992 74.056c-17.89 9.807-19.183 34.29-3.876 46.211 2.692 2.089 58.793 32.639 58.897 32.696 41.776 9.33 82.826-53.833 53.077-59.743-30.895-5.175-44.009-42.563-22.971-65.818z" opacity="1" data-original="#4c3e4f" class=""></path><path fill="#4c3e4f" d="M362.935 162.911v-30.268c0-25.103-47.89-45.459-106.95-45.459-1.771.104-26.54-.589-53.713 6.114-22.599 7.449-26.675 18.688-26.675 27.68v50.334l13.411 25.291c60.024 10.668 165.583-12.965 173.927-33.692z" opacity="1" data-original="#4c3e4f" class=""></path><path fill="#3c2f3f" d="M202.271 93.298c-31.897 7.868-53.351 22.542-53.351 39.345v30.268c3.877 8.5 19.234 29.985 40.086 33.691v-78.509c.001-8.991 4.815-17.442 13.265-24.795z" opacity="1" data-original="#3c2f3f"></path><path fill="#f0edff" d="M189.007 162.911c-23.754 4.655-24.271 50.682 0 55.337h173.928v-55.337z" opacity="1" data-original="#f0edff" class=""></path><path fill="#dcdbff" d="M148.921 162.911v55.337h40.086v-55.337z" opacity="1" data-original="#dcdbff"></path><path fill="#4c3e4f" d="M302.742 470.627v-40.081h-76.055v42.032c0 17.242 7.333 39.133 39.51 39.133 20.572-2.394 36.545-19.87 36.545-41.084z" opacity="1" data-original="#4c3e4f" class=""></path><path fill="#3c2f3f" d="M242.709 472.578v-42.032h-33.45v40.081c0 22.848 18.525 41.373 41.373 41.373h10.736a41.6 41.6 0 0 0 4.828-.29c-13.893-6.997-23.487-21.89-23.487-39.132z" opacity="1" data-original="#3c2f3f"></path><path fill="#fade65" d="M396.236 287.632c0-33.657-13.534-64.553-33.3-88.715H189.253c-80.646 19.332-51.168 236.025 83.428 225.569 15.926-1.685 31.852-5.777 47.779-12.289 45.014-23.345 75.776-70.366 75.776-124.565z" opacity="1" data-original="#fade65"></path><path fill="#ffc647" d="M189.253 198.917H148.92c-60.821 74.347-32.513 174.315 42.62 213.28 27.047 11.058 54.094 15.15 81.141 12.289-103.658-11.884-148.548-139.315-83.428-225.569z" opacity="1" data-original="#ffc647"></path><path fill="#ffc647" d="M319.845 287.537a7.754 7.754 0 0 0-9.255-7.515l-.06.009c-.012.002-.022.006-.034.009-3.693.759-6.325 4.103-6.171 7.909-.106 11.447-5.815 19.966-10.933 19.966-5.161 0-10.933-8.675-10.933-20.284a7.758 7.758 0 0 0-15.516 0c0 11.609-5.778 20.284-10.943 20.284s-10.943-8.675-10.943-20.284c0-4.285-3.473-7.758-7.758-7.758s-7.758 3.473-7.758 7.758c0 11.609-5.772 20.284-10.933 20.284-5.053 0-10.677-8.309-10.92-19.538a7.756 7.756 0 0 0-6.894-8.46 8.142 8.142 0 0 0-.837-.041c-.017 0-.033-.003-.05-.003a7.758 7.758 0 0 0-7.758 7.758c0 .091.004.181.005.273-.747 8.948-3.986 67.688 32.327 131.234a7.754 7.754 0 0 0 10.584 2.887 7.757 7.757 0 0 0 2.886-10.584c-19.547-34.207-26.807-67.338-29.353-90.58 9.286 4.998 20.837 2.857 28.701-7.682 10.21 13.678 27.18 13.689 37.398 0 7.929 10.625 19.557 12.674 28.817 7.621-2.332 23.308-9.008 56.56-27.027 90.883a7.758 7.758 0 0 0 13.737 7.212c33.901-64.568 30.221-124.104 29.621-131.358z" opacity="1" data-original="#ffc647"></path><path fill="#594c5e" d="M333.575 430.546c0-10.812-8.773-19.394-19.394-19.394h-87.396c-20.693 0-24.181 10.905-24.181 19.394 0 8.492 0 19.394 24.179 19.394h87.397c10.718 0 19.395-8.68 19.395-19.394z" opacity="1" data-original="#594c5e"></path><path fill="#4c3e4f" d="M216.093 430.546c0-8.489 4.355-15.821 10.693-19.394h-28.967c-10.716 0-19.394 8.683-19.394 19.394 0 10.716 8.678 19.394 19.394 19.394h28.966c-6.337-3.573-10.692-10.902-10.692-19.394z" opacity="1" data-original="#4c3e4f" class=""></path><g fill="#fade65"><path d="M457.696 294.789h-15.515a7.758 7.758 0 0 1 0-15.516h15.515a7.758 7.758 0 0 1 0 15.516zM69.819 294.789H54.304a7.758 7.758 0 0 1 0-15.516h15.515a7.758 7.758 0 0 1 0 15.516zM62.487 367.183a7.758 7.758 0 0 1 4.199-10.136l14.336-5.937a7.758 7.758 0 0 1 5.936 14.335l-14.336 5.937a7.759 7.759 0 0 1-10.135-4.199zM107.89 435.141a7.758 7.758 0 0 1 0-10.971l10.974-10.974a7.759 7.759 0 0 1 10.971 10.972l-10.974 10.974a7.758 7.758 0 0 1-10.971-.001zM393.139 435.142l-10.974-10.974a7.758 7.758 0 0 1 10.971-10.972l10.974 10.974a7.757 7.757 0 0 1 0 10.971 7.758 7.758 0 0 1-10.971.001zM439.378 371.382l-14.336-5.937a7.758 7.758 0 0 1 5.936-14.335l14.336 5.937a7.758 7.758 0 0 1-5.936 14.335z" fill="#fade65" opacity="1" data-original="#fade65"></path></g><path fill="#25383f" d="M191.406 252.899a7.758 7.758 0 0 1-7.758-7.758v-12.412a7.758 7.758 0 0 1 15.516 0v12.412a7.758 7.758 0 0 1-7.758 7.758zM320.595 252.899a7.758 7.758 0 0 1-7.758-7.758v-12.412a7.758 7.758 0 0 1 15.516 0v12.412a7.759 7.759 0 0 1-7.758 7.758zM256 260.285c-8.779 0-17.118-3.8-22.879-10.425a7.758 7.758 0 0 1 11.708-10.18c5.902 6.788 16.447 6.78 22.342 0a7.758 7.758 0 0 1 11.708 10.18A30.309 30.309 0 0 1 256 260.285z" opacity="1" data-original="#25383f"></path><circle cx="93.092" cy="193.942" r="18.101" fill="#fade65" opacity="1" data-original="#fade65"></circle></g></svg>
